- 
http://www.torrentkit.com  

who care what we share! support us by seeding back,
and don't forget to visit www.torrentkit.com
-
                                                     
                                                   
                                                         
                                                          
                                                           
                                                          
                                                          
                                                          
                                                           
                                                         
                                                          
                                                        
                                                      
                                     
                                                 
                                                   
                                             
                                              
                                                     
                                                      
                                                      
                                                      
                                                    
                                                     
                                                   
                                                     
                                                     
                                                      
                                                     
                                                      
                                                    
                 ARTiCHOKE                        
                                                
                      
                                                        
                                                      
                                                      
                                               
                                          
                                                   
                                            
                                                    
                                                       
                                                        
                                                      
                                                
                                                        
                                                 
                                              
                                                  
                                                
                                                  
                                        

      
                                
      SPRiNTER proudly presents...     
                                
      
 
Far.From.The.Madding.Crowd.1998.DVDRip.XViD-SPRiNTER 
http://www.imdb.com/title/tt0157616/


Date: 2011.02
Genre: Docu
Plot : A television adaptation of the classic Thomas Hardy novel. The arrival of Bathsheba Everdene as mistress of Weatherbury Farm 
	 causes quite a stir in the all-male environment of the Corn Exchange. A beautiful and proud young woman with a fiercely independent 
	 spirit, she soon ensnares and almost destroys the lives of the three men who love her - local shepherd Gabriel Oak, gentleman farmer 
	 Mr Boldwood and the womanising Sergeant Frank Troy.  

  Paloma Baeza  ...  Bathsheba Everdene  
  Nigel Terry  ...  Mr Boldwood  
  Nathaniel Parker  ...  Gabriel Oak  
  Jonathan Firth  ...  Sergeant Frank Troy  
  Victoria Alcock  ...  Temperance Miller  
  James Allen  ...  Will Coggan  
  Robin Ardra  ...  Tollgate Keeper  
  Peter Aubrey  ...  Daniel Selby  
  Paul Ax  ...  Sergeant  
  James Ballantine  ...  Joe Coggan  
  David Barrass  ...  Pennyways  
  Tim Bartholomew  ...  Sam Sammy  



      
                 
      Release notes     
                 
      

     Enjoy...


      
           
     Greetings    
           
      


NTX aAF FiCO HNR CiNEFiLE AEN HUMANiSM SSF


      
           
      Details     
           
      


Format                           : AVI
Format/Info                      : Audio Video Interleave
File size                        : 696 MiB
Duration                         : 52mn 21s
Overall bit rate                 : 1 859 Kbps
Writing application              : Nandub v1.0rc2
Writing library                  : Nandub build 1852/release

Video
ID                               : 0
Format                           : MPEG-4 Visual
Format profile                   : AdvancedSimple@L5
Format settings, BVOP            : No
Format settings, QPel            : No
Format settings, GMC             : No warppoints
Format settings, Matrix          : Default (H.263)
Codec ID                         : XVID
Codec ID/Hint                    : XviD
Duration                         : 52mn 21s
Bit rate                         : 1 697 Kbps
Width                            : 512 pixels
Height                           : 384 pixels
Display aspect ratio             : 4:3
Frame rate                       : 25.000 fps
Resolution                       : 24 bits
Colorimetry                      : 4:2:0
Scan type                        : Progressive
Bits/(Pixel*Frame)               : 0.345
Stream size                      : 636 MiB (91%)
Writing library                  : XviD 1.2.1 (UTC 2008-12-04)

Audio
ID                               : 1
Format                           : MPEG Audio
Format version                   : Version 1
Format profile                   : Layer 3
Codec ID                         : 55
Codec ID/Hint                    : MP3
Duration                         : 52mn 21s
Bit rate mode                    : Variable
Bit rate                         : 149 Kbps
Channel(s)                       : 2 channels
Sampling rate                    : 48.0 KHz
Resolution                       : 16 bits
Stream size                      : 55.7 MiB (8%)
Alignment                        : Aligned on interleaves
Interleave, duration             : 24 ms (0.60 video frame)
Interleave, preload duration     : 158 ms
Writing library                  : LAME3.89 (alpha)